<?xml version="1.0" encoding="UTF-8" standalone="no"?>
<!DOCTYPE svg PUBLIC "-//W3C//DTD SVG 1.1//EN" "http://www.w3.org/Graphics/SVG/1.1/DTD/svg11.dtd">
<svg width="20" height="20" viewBox="0 0 16 16" version="1.1" xmlns="http://www.w3.org/2000/svg" xmlns:xlink="http://www.w3.org/1999/xlink" xml:space="preserve" xmlns:serif="http://www.serif.com/" style="fill-rule:evenodd;clip-rule:evenodd;stroke-linejoin:round;stroke-miterlimit:2;">
    <g id="Artboard1" transform="matrix(0.987035,0,0,1.00168,0,0)">
        <rect x="0" y="0" width="17" height="16" style="fill:none;"/>
        <clipPath id="_clip1">
            <rect x="0" y="0" width="17" height="16"/>
        </clipPath>
        <g clip-path="url(#_clip1)">
            <g transform="matrix(0.0797494,0,0,0.0785836,-55.7311,-21.2654)">
                <g>
                    <g transform="matrix(1.10207,0,0,1.10207,585.292,135.069)">
                        <path d="M242.96,247.71C251.678,248.408 260.082,242.915 264.699,235.487C269.316,228.061 270.657,219.024 270.561,210.281C270.465,201.537 269.041,192.861 268.591,184.127C268.33,179.059 268.575,173.48 271.943,169.686C274.309,167.021 277.816,165.718 280.699,163.623C283.581,161.527 285.973,157.794 284.547,154.529C283.697,152.584 281.634,151.349 279.527,151.093C277.421,150.837 275.29,151.436 273.375,152.35C266.884,155.445 262.571,162.049 260.755,169.008C258.937,175.966 259.319,183.303 260.144,190.448C260.971,197.593 262.229,204.722 262.127,211.915C262.025,219.106 260.439,226.511 256.124,232.266C251.811,238.022 244.385,241.773 237.338,240.334C238.549,242.905 240.194,247.059 242.96,247.71Z" style="fill:rgb(249,178,51);fill-rule:nonzero;"/>
                    </g>
                    <g transform="matrix(1.10207,0,0,1.10207,585.292,135.069)">
                        <path d="M172.017,238.598C169.349,238.598 166.645,238.399 163.926,237.989C162.978,237.845 162.037,237.678 161.108,237.488C133.263,231.785 114.462,205.197 118.749,176.764C122.772,150.101 145.716,130.978 171.885,130.978C174.554,130.978 177.256,131.177 179.975,131.587C180.923,131.73 181.862,131.898 182.792,132.089C210.637,137.792 229.439,164.38 225.15,192.812C221.129,219.476 198.186,238.599 172.017,238.598ZM171.844,134.218C161.123,134.218 150.719,137.621 141.931,144.105C131.063,152.124 123.97,163.894 121.956,177.248C117.944,203.852 135.427,228.918 161.759,234.311C162.632,234.491 163.524,234.648 164.41,234.782C166.966,235.168 169.521,235.358 172.059,235.358C182.779,235.358 193.182,231.954 201.969,225.47C212.836,217.453 219.93,205.683 221.944,192.33C225.956,165.724 208.474,140.66 182.142,135.266L182.141,135.266C181.268,135.087 180.376,134.929 179.49,134.794C176.935,134.409 174.381,134.218 171.844,134.218Z" style="fill:rgb(167,170,173);fill-rule:nonzero;"/>
                    </g>
                    <g transform="matrix(1.10207,0,0,1.10207,585.292,135.069)">
                        <path d="M196.343,162.337C197.675,158.78 198.029,154.864 197.362,151.124C196.979,148.978 196.108,146.699 194.192,145.654C192.331,144.64 189.886,145.136 188.271,146.51C186.657,147.883 185.791,149.979 185.502,152.079C185.214,154.179 185.446,156.313 185.699,158.419C189.575,159.604 192.882,160.228 196.343,162.337Z" style="fill:rgb(249,178,51);fill-rule:nonzero;"/>
                    </g>
                    <g transform="matrix(1.10207,0,0,1.10207,585.292,135.069)">
                        <path d="M194.565,160.982C193.958,159.826 194.016,158.443 194.143,157.145C194.271,155.845 194.449,154.5 194.043,153.259C193.638,152.018 192.438,150.92 191.147,151.122C189.573,151.368 188.857,153.256 188.829,154.851C188.8,156.444 189.124,158.144 188.387,159.559C190.294,160.347 192.659,160.193 194.565,160.982Z" style="fill:rgb(249,141,51);fill-rule:nonzero;"/>
                    </g>
                    <g transform="matrix(1.10207,0,0,1.10207,585.292,135.069)">
                        <path d="M136.909,185.318C133.412,183.839 130.324,181.404 128.07,178.349C126.774,176.594 125.717,174.396 126.276,172.287C126.82,170.237 128.86,168.804 130.968,168.576C133.076,168.347 135.192,169.159 136.916,170.394C138.64,171.629 140.029,173.265 141.385,174.895C139.579,178.524 137.759,181.354 136.909,185.318Z" style="fill:rgb(249,178,51);fill-rule:nonzero;"/>
                    </g>
                    <g transform="matrix(1.10207,0,0,1.10207,585.292,135.069)">
                        <path d="M137.148,183.095C136.727,181.859 135.685,180.952 134.652,180.152C133.62,179.35 132.522,178.554 131.9,177.406C131.278,176.259 131.306,174.633 132.339,173.835C133.6,172.86 135.466,173.64 136.643,174.714C137.818,175.79 138.83,177.194 140.363,177.631C139.624,179.558 137.886,181.169 137.148,183.095Z" style="fill:rgb(249,141,51);fill-rule:nonzero;"/>
                    </g>
                    <g transform="matrix(1.10207,0,0,1.10207,585.292,135.069)">
                        <path d="M152.322,229.02C149.127,226.541 146.369,223.443 144.091,219.96C140.037,213.759 136.564,206.155 135.179,198.848C131.931,181.722 142.01,167.448 157.836,161.576C165.154,158.861 173.777,157.339 181.575,157.136C187.371,156.984 193.328,157.98 198.31,160.947C211.703,168.917 217.99,188.303 218.302,203.099C218.501,212.589 214.68,219.358 206.269,224.097C202.018,226.494 195.179,229.582 190.491,230.936C177.063,234.814 164.329,238.339 152.322,229.02Z" style="fill:rgb(249,178,51);fill-rule:nonzero;"/>
                    </g>
                    <g transform="matrix(1.10207,0,0,1.10207,585.292,135.069)">
                        <path d="M162.941,159.939C161.193,160.426 159.478,160.967 157.836,161.576C156.681,162.005 155.567,162.491 154.476,163.007C153.948,175.989 156.841,189.091 162.827,200.576C171.001,196.507 180.213,193.559 188.863,190.662C183.697,178.294 174.21,167.149 162.941,159.939Z" style="fill:rgb(255,235,186);fill-rule:nonzero;"/>
                    </g>
                    <g transform="matrix(1.10207,0,0,1.10207,585.292,135.069)">
                        <path d="M187.992,203.974C187.958,203.454 187.351,203.347 187.066,203.735C186.306,204.774 185.917,205.959 185.001,206.909C184.487,207.443 183.915,207.812 183.319,208.146L180.887,202.669L179.466,203.3L181.896,208.772C181.332,208.992 180.753,209.171 180.101,209.237C178.787,209.37 177.616,208.941 176.328,208.896C175.848,208.88 175.557,209.422 175.944,209.771C177.596,211.252 180.911,211.1 183.089,210.021C185.49,209.233 188.149,206.418 187.992,203.974Z" style="fill:rgb(69,62,59);fill-rule:nonzero;"/>
                    </g>
                    <g transform="matrix(1.10207,0,0,1.10207,585.292,135.069)">
                        <path d="M149.124,208.889C151.385,210.568 154.482,210.658 156.537,209.103C158.59,207.548 159.463,204.455 158.625,201.698C157.696,198.635 154.688,196.262 151.782,196.338C145.854,196.493 143.939,205.039 149.124,208.889Z" style="fill:white;fill-rule:nonzero;"/>
                    </g>
                    <g transform="matrix(1.10207,0,0,1.10207,585.292,135.069)">
                        <path d="M156.537,209.103C158.59,207.548 159.463,204.455 158.625,201.698C157.696,198.635 154.688,196.262 151.782,196.338C150.503,196.371 149.426,196.812 148.551,197.494C148.117,199.229 148.252,201.12 149.055,202.78C149.155,202.987 149.287,203.174 149.401,203.373C149.973,204.617 150.795,205.643 151.824,206.4C153.111,207.586 154.632,208.538 156.214,209.302C156.32,209.234 156.435,209.179 156.537,209.103Z" style="fill:rgb(82,34,59);fill-rule:nonzero;"/>
                    </g>
                    <g transform="matrix(1.10207,0,0,1.10207,585.292,135.069)">
                        <path d="M195.652,191.971C197.915,193.652 201.011,193.742 203.064,192.187C205.119,190.631 205.992,187.539 205.155,184.78C204.225,181.718 201.216,179.346 198.311,179.421C192.382,179.576 190.467,188.122 195.652,191.971Z" style="fill:white;fill-rule:nonzero;"/>
                    </g>
                    <g transform="matrix(1.10207,0,0,1.10207,585.292,135.069)">
                        <path d="M203.064,192.187C205.119,190.631 205.992,187.539 205.155,184.78C204.225,181.718 201.216,179.346 198.311,179.421C197.032,179.456 195.953,179.894 195.08,180.577C194.646,182.313 194.782,184.204 195.583,185.864C195.684,186.07 195.816,186.257 195.929,186.457C196.501,187.701 197.323,188.728 198.353,189.484C199.64,190.671 201.161,191.623 202.743,192.386C202.85,192.317 202.963,192.262 203.064,192.187Z" style="fill:rgb(82,34,59);fill-rule:nonzero;"/>
                    </g>
                    <g transform="matrix(1.10207,0,0,1.10207,585.292,135.069)">
                        <path d="M188.733,190.248C179.133,189.563 169.306,193.395 162.702,200.397C166.654,205.286 173.04,207.224 178.91,204.977C184.779,202.73 189.056,196.525 188.733,190.248Z" style="fill:rgb(82,34,59);fill-rule:nonzero;"/>
                    </g>
                    <g transform="matrix(1.10207,0,0,1.10207,585.292,135.069)">
                        <path d="M157.836,161.576C156.328,162.136 154.89,162.794 153.493,163.502C156.175,169.669 160.459,175.134 165.845,179.165C166.638,172.574 166.444,165.87 165.291,159.332C162.72,159.957 160.206,160.697 157.836,161.576Z" style="fill:rgb(118,64,89);fill-rule:nonzero;"/>
                    </g>
                    <g transform="matrix(1.10207,0,0,1.10207,585.292,135.069)">
                        <path d="M152.322,229.02C153.061,229.593 153.801,230.115 154.544,230.592C157.431,225.705 161.996,221.838 166.441,218.188C164.071,218.981 152.824,221.731 147.541,224.479C149.006,226.145 150.594,227.68 152.322,229.02Z" style="fill:rgb(118,64,89);fill-rule:nonzero;"/>
                    </g>
                    <g transform="matrix(1.10207,0,0,1.10207,585.292,135.069)">
                        <path d="M135.413,199.897C135.687,201.166 136.014,202.439 136.4,203.714C138.386,200.739 140.806,198.055 143.597,195.82C140.675,196.733 137.909,198.127 135.413,199.897Z" style="fill:rgb(118,64,89);fill-rule:nonzero;"/>
                    </g>
                    <g transform="matrix(1.10207,0,0,1.10207,585.292,135.069)">
                        <path d="M153.146,163.677C150.094,165.26 147.312,167.165 144.903,169.384C145.927,171.104 147.258,172.752 148.118,173.928C150.503,177.198 153.288,180.178 156.396,182.771C155.313,176.406 154.23,170.041 153.146,163.677Z" style="fill:rgb(118,64,89);fill-rule:nonzero;"/>
                    </g>
                    <g transform="matrix(1.10207,0,0,1.10207,585.292,135.069)">
                        <path d="M136.066,190.755C135.614,190.989 135.123,191.231 134.62,191.477C134.555,193.495 134.683,195.567 135.013,197.689C138.038,193.682 141.454,189.968 145.215,186.641C142.093,187.84 139.037,189.216 136.066,190.755Z" style="fill:rgb(118,64,89);fill-rule:nonzero;"/>
                    </g>
                    <g transform="matrix(1.10207,0,0,1.10207,585.292,135.069)">
                        <path d="M175.067,157.601C172.187,157.926 169.278,158.406 166.431,159.051C170.692,164.287 174.953,169.525 179.213,174.761C178.773,168.866 177.349,163.054 175.067,157.601Z" style="fill:rgb(118,64,89);fill-rule:nonzero;"/>
                    </g>
                    <g transform="matrix(1.10207,0,0,1.10207,585.292,135.069)">
                        <path d="M217.904,208.586C212.952,209.186 208.045,210.119 203.328,211.896C207.656,212.534 211.984,213.17 216.312,213.807C217.05,212.189 217.578,210.451 217.904,208.586Z" style="fill:rgb(118,64,89);fill-rule:nonzero;"/>
                    </g>
                    <g transform="matrix(1.10207,0,0,1.10207,585.292,135.069)">
                        <path d="M218.302,203.099C218.28,202.062 218.222,201 218.141,199.925C216.084,200.466 214.145,201.107 212.519,201.673C208.75,202.988 205.112,204.772 201.724,206.994C207.197,206.756 212.669,206.789 218.125,207.036C218.265,205.776 218.331,204.47 218.302,203.099Z" style="fill:rgb(118,64,89);fill-rule:nonzero;"/>
                    </g>
                    <g transform="matrix(1.10207,0,0,1.10207,585.292,135.069)">
                        <path d="M201.611,163.292C200.042,164.19 198.548,165.288 197.442,166.078C194.653,168.067 192.154,170.465 190.066,173.184C195.178,170.494 200.815,168.818 206.562,168.251C205.064,166.409 203.412,164.747 201.611,163.292Z" style="fill:rgb(118,64,89);fill-rule:nonzero;"/>
                    </g>
                    <g transform="matrix(1.10207,0,0,1.10207,585.292,135.069)">
                        <path d="M171.202,223.586C165.987,225.795 160.981,228.487 156.232,231.573C159.396,233.316 162.607,234.297 165.868,234.702C167.646,230.998 169.423,227.292 171.202,223.586Z" style="fill:rgb(118,64,89);fill-rule:nonzero;"/>
                    </g>
                    <g transform="matrix(1.10207,0,0,1.10207,585.292,135.069)">
                        <path d="M207.219,169.062C203.886,170.754 200.94,173.207 198.71,176.206C202.435,174.975 206.255,174.035 210.124,173.377C209.23,171.87 208.266,170.423 207.219,169.062Z" style="fill:rgb(118,64,89);fill-rule:nonzero;"/>
                    </g>
                    <g transform="matrix(1.10207,0,0,1.10207,585.292,135.069)">
                        <path d="M268.979,176.115C269.413,173.904 270.232,171.838 271.637,170.098C268.551,168.444 265.062,167.337 261.73,165.984C261.357,166.979 261.021,167.986 260.755,169.006C260.509,169.949 260.31,170.897 260.14,171.852C260.406,171.997 260.668,172.144 260.937,172.289C263.493,173.665 266.172,175.19 268.979,176.115Z" style="fill:rgb(118,64,89);fill-rule:nonzero;"/>
                    </g>
                    <g transform="matrix(1.10207,0,0,1.10207,585.292,135.069)">
                        <path d="M264.717,230.483C263.879,230.257 262.86,230.4 262.073,230.098C260.428,229.47 259.252,231.484 260.501,232.67C261.217,233.349 261.568,234.285 262.389,234.928C262.952,235.369 263.619,235.754 264.297,236.092C264.431,235.889 264.572,235.692 264.699,235.487C265.565,234.094 266.281,232.631 266.928,231.138C266.191,230.917 265.458,230.683 264.717,230.483Z" style="fill:rgb(118,64,89);fill-rule:nonzero;"/>
                    </g>
                    <g transform="matrix(1.10207,0,0,1.10207,585.292,135.069)">
                        <path d="M263.451,194.014C262.491,194.124 261.579,195.123 261.786,196.13C262.545,199.813 266.162,201.438 270.136,201.981C269.953,199.73 269.738,197.482 269.516,195.233C267.512,194.648 265.573,193.77 263.451,194.014Z" style="fill:rgb(118,64,89);fill-rule:nonzero;"/>
                    </g>
                    <g transform="matrix(1.10207,0,0,1.10207,585.292,135.069)">
                        <path d="M268.947,210.726C269.95,209.763 269.527,207.908 268.561,207.121C266.785,205.677 264.266,206.019 262.154,205.263C262.055,205.228 261.963,205.174 261.864,205.137C262.047,207.38 262.158,209.628 262.127,211.883C264.539,212.524 267.108,212.49 268.947,210.726Z" style="fill:rgb(118,64,89);fill-rule:nonzero;"/>
                    </g>
                    <g transform="matrix(1.10207,0,0,1.10207,585.292,135.069)">
                        <path d="M226.741,207.604C228.25,207.935 229.979,207.69 231.069,206.595C231.966,205.694 232.297,204.389 232.578,203.15C233.021,201.203 233.434,199.25 233.816,197.291C234.1,195.835 234.367,194.326 234.023,192.882C233.555,190.904 231.977,189.337 230.179,188.391C229.24,187.899 228.24,187.553 227.216,187.275C227.027,193.745 225.806,200.184 223.621,206.278C224.609,206.851 225.632,207.361 226.741,207.604Z" style="fill:rgb(170,205,221);fill-rule:nonzero;"/>
                    </g>
                    <g transform="matrix(1.10207,0,0,1.10207,585.292,135.069)">
                        <path d="M242.454,182.89C239.899,183.753 237.301,184.451 234.443,184.617C231.93,184.762 229.563,184.494 227.225,184.079C227.246,184.989 227.251,185.899 227.231,186.808C232.378,187.85 238.195,187.496 243.121,185.817C242.922,184.835 242.699,183.86 242.454,182.89Z" style="fill:rgb(170,205,221);fill-rule:nonzero;"/>
                    </g>
                    <g transform="matrix(1.10207,0,0,1.10207,585.292,135.069)">
                        <path d="M241.941,181.061C241.734,180.336 241.539,179.609 241.304,178.894C241.376,178.501 241.418,178.105 241.48,177.712C239.914,178.391 238.27,178.934 236.414,179.205C233.157,179.679 229.867,179.459 226.773,178.53C226.885,178.83 226.998,179.131 227.082,179.44L226.936,179.409C227.018,180.204 227.08,181 227.13,181.797C231.732,183.041 237.252,182.707 241.941,181.061Z" style="fill:rgb(170,205,221);fill-rule:nonzero;"/>
                    </g>
                    <g transform="matrix(1.10207,0,0,1.10207,585.292,135.069)">
                        <path d="M265.586,279.857C261.746,283.171 256.818,287.198 251.756,286.855C248.199,286.619 244.68,285.892 241.309,284.733C246.521,280.691 250.781,275.484 253.006,269.316C253.337,268.399 253.613,267.457 253.838,266.504C258.772,267.86 263.814,267.475 269.047,266.263C275.499,264.77 281.429,261.098 285.644,255.989C288.596,258.503 291.441,260.298 295.268,260.943C295.912,251.473 291.199,239.468 283.484,234.098C282.238,233.232 280.556,233.274 279.44,234.301C276.842,236.695 273.964,238.893 271.113,241.075C268.311,243.217 264.909,244.412 261.385,244.568C255.79,244.824 250.167,244.364 244.686,243.22C243.582,242.578 242.417,242.019 241.195,241.571C238.33,240.52 235.753,239.01 233.17,236.759C232.982,236.596 232.8,236.426 232.614,236.261C244.142,220.027 247.531,197.808 241.304,178.894C242.107,174.525 242.339,170.052 241.914,165.631C241.828,164.753 241.543,163.673 240.677,163.504C239.783,163.329 239.104,164.291 238.784,165.145C238.182,166.758 237.818,168.218 237.932,169.938C237.617,168.909 237.688,167.811 237.68,166.736C237.673,165.661 237.564,164.53 236.955,163.644C236.348,162.758 235.094,162.235 234.156,162.76C233.443,163.16 233.122,164.005 232.941,164.801C232.488,166.793 232.441,168.411 233.049,170.358C232.455,168.254 231.613,166.22 230.549,164.31C230.262,163.792 229.9,163.239 229.326,163.093C228.668,162.924 227.979,163.392 227.676,163.999C227.372,164.607 227.367,165.314 227.389,165.994C227.465,168.328 227.872,170.646 228.469,172.902C227.769,171.857 227.007,170.76 225.857,170.249C224.708,169.735 223.069,170.112 222.687,171.311C222.252,172.674 223.568,173.885 224.554,174.92C225.758,176.183 226.621,177.756 227.082,179.44L226.936,179.409C228.309,192.73 225.126,206.477 218.04,217.839C218.255,218.266 218.476,218.698 218.702,219.13C212.882,227.174 204.777,233.556 195.572,237.282C185.729,241.265 174.604,243.561 164.228,241.338C164.021,240.958 163.815,240.584 163.608,240.213C150.227,239.723 137.054,234.664 126.785,226.07L126.728,226.208C125.591,224.884 124.771,223.289 124.398,221.583C124.093,220.187 123.825,218.417 122.453,218.016C121.245,217.661 120.017,218.808 119.798,220.047C119.578,221.287 120.062,222.532 120.534,223.697C118.999,221.938 117.306,220.306 115.416,218.934C114.866,218.536 114.274,218.145 113.602,218.056C112.928,217.967 112.156,218.276 111.926,218.916C111.727,219.474 111.983,220.082 112.25,220.612C113.238,222.563 114.453,224.398 115.863,226.068C114.59,224.474 113.222,223.606 111.32,222.868C110.558,222.572 109.677,222.364 108.947,222.731C107.987,223.213 107.718,224.548 108.112,225.547C108.506,226.546 109.382,227.268 110.269,227.877C111.155,228.485 112.105,229.042 112.78,229.878C111.418,228.823 110.006,228.307 108.331,227.902C107.446,227.687 106.269,227.712 105.913,228.551C105.567,229.365 106.302,230.205 106.984,230.767C110.409,233.594 114.245,235.906 118.313,237.685C130.554,253.503 150.986,263.159 170.974,262.602C170.968,262.434 170.952,262.264 170.945,262.094C172.027,264.622 173.205,267.107 174.529,269.522C179.394,278.384 186.342,286.411 195.441,290.818C196.713,291.433 198.02,291.953 199.346,292.414C199.04,292.394 198.725,292.378 198.424,292.353C208.078,297.692 223.345,304.945 234.199,306.909C245.054,308.873 256.807,307.742 266.143,301.869C270.436,305.405 275.457,306.468 280.971,305.737C280.703,295.783 273.707,283.935 265.586,279.857Z" style="fill:rgb(214,231,234);fill-rule:nonzero;"/>
                    </g>
                    <g transform="matrix(1.10207,0,0,1.10207,585.292,135.069)">
                        <path d="M170.723,243.72C182.909,243.56 194.017,240.314 204.628,234.854C209.716,232.235 232.276,217.86 222.109,211.389C219.852,209.951 217.887,211.228 215.494,212.36C213.102,213.493 211.419,215.307 209.627,216.977C202.531,223.589 192.783,228.381 182.058,230.777C176.54,232.011 170.909,232.491 165.121,232.507C160.873,232.52 153.932,233.077 153.906,237.521C153.875,242.78 162.799,243.824 170.723,243.72Z" style="fill:rgb(192,218,234);fill-rule:nonzero;"/>
                    </g>
                    <g transform="matrix(1.10207,0,0,1.10207,585.292,135.069)">
                        <path d="M217.764,238.064C207.773,247.455 194.993,253.839 181.485,256.194L188.447,265.427C190.544,268.213 193.876,269.815 197.356,269.635C202.198,269.388 209.202,268.349 214.825,264.804C218.195,262.679 221.099,260.095 223.45,257.636C227.605,253.286 227.241,246.335 222.709,242.379L217.764,238.064Z" style="fill:rgb(170,205,221);fill-rule:nonzero;"/>
                    </g>
                    <g transform="matrix(1.10207,0,0,1.10207,585.292,135.069)">
                        <path d="M232.681,291.16C234.1,290.364 235.494,289.529 236.84,288.612L232.681,291.16Z" style="fill:rgb(192,218,234);fill-rule:nonzero;"/>
                    </g>
                    <g transform="matrix(1.10207,0,0,1.10207,585.292,135.069)">
                        <path d="M219.485,156.185C217.912,153.579 214.119,147.347 210.33,148.484C207.989,141.89 205.325,135.291 202.526,128.97C202.697,128.787 202.85,128.586 202.972,128.368C204.116,126.307 202.982,123.693 200.696,123.148C198.335,122.585 196.135,124.89 196.937,127.224C197.053,127.565 197.272,127.855 197.525,128.118C197.387,128.388 197.465,128.743 197.628,128.979C198.311,129.959 199.416,130.257 200.474,130.074C202.59,136.482 204.974,142.997 207.589,149.305C205.531,153.037 208.125,159.085 209.937,162.367C211.684,165.531 216.16,172.563 220.641,169.434C224.783,166.542 221.44,159.421 219.485,156.185Z" style="fill:rgb(157,181,197);fill-rule:nonzero;"/>
                    </g>
                </g>
            </g>
        </g>
    </g>
</svg>
